{"title":"Amy(2015)MPEG-4(720p)[DaScubaDude]","uid":13236562,"size":1278955938,"categoryP":"video","categoryS":"movies","magnet":"?xt=urn:btih:473d5692d59703e7aa98fb41555f0a3706e98d26&amp;dn=Amy%282015%29MPEG-4%28720p%29%5BDaScubaDude%5D&amp;tr=udp%3A%2F%2Ftracker.leechers-paradise.org%3A6969&amp;tr=udp%3A%2F%2Fzer0day.ch%3A1337&amp;tr=udp%3A%2F%2Fopen.demonii.com%3A1337&amp;tr=udp%3A%2F%2Ftracker.coppersurfer.tk%3A6969&amp;tr=udp%3A%2F%2Fexodus.desync.com%3A6969","seeders":3,"leechers":1,"uploader":"dascuba","files":1,"time":1453015185,"description":"Amy (III) (2015)\r\nR  |  128 min  |  Documentary, Biography, Music  |  3 July 2015 (USA)\r\n7.9 Your rating:   -/10   Ratings: 7.9/10 from 17,634 users   Metascore: 85/100 \r\nReviews: 69 user | 207 critic | 41 from Metacritic.com\r\nThe story of Amy Winehouse in her own words, featuring unseen archival footage and unheard tracks.\r\n\r\nDirector: Asif Kapadia\r\nStars: Amy Winehouse, Mitch Winehouse, Mark Ronson\r\n\r\nGeneral\r\nComplete name                            :AmyAmy_Title1.mp4\r\nFormat                                   : MPEG-4\r\nFormat profile                           : Base Media\r\nCodec ID                                 : isom\r\nFile size                                : 1.19 GiB\r\nDuration                                 : 2h 7mn\r\nOverall bit rate                         : 1 333 Kbps\r\nMovie name                               : Amy\r\nGenre                                    : Music_nf\r\nWriting application                      : Lavf54.6.100\r\n\r\nVideo\r\nID                                       : 1\r\nFormat                                   : AVC\r\nFormat/Info                              : Advanced Video Codec\r\nFormat profile                           :   \r\nFormat settings, CABAC                   : No\r\nFormat settings, ReFrames                : 6 frames\r\nCodec ID                                 : avc1\r\nCodec ID/Info                            : Advanced Video Coding\r\nDuration                                 : 2h 7mn\r\nBit rate                                 : 1 199 Kbps\r\nWidth                                    : 720 pixels\r\nHeight                                   : 404 pixels\r\nDisplay aspect ratio                     : 16:9\r\nFrame rate mode                          : Constant\r\nFrame rate                               : 29.970 fps\r\nColor space                              : YUV\r\nChroma subsampling                       : 4:2:0\r\nBit depth                                : 8 bits\r\nScan type                                : Progressive\r\nBits/(Pixel*Frame)                       : 0.138\r\nStream size                              : 1.07 GiB (90%)\r\n\r\nAudio\r\nID                                       : 2\r\nFormat                                   : AAC\r\nFormat/Info                              : Advanced Audio Codec\r\nFormat profile                           : LC\r\nCodec ID                                 : 40\r\nDuration                                 : 2h 7mn\r\nBit rate mode                            : Constant\r\nBit rate                                 : 128 Kbps\r\nChannel(s)                               : 2 channels\r\nChannel positions                        : Front: L R\r\nSampling rate                            : 44.1 KHz\r\nCompression mode                         : Lossy\r\nStream size                              : 117 MiB (10%)","torrent":{"xt":"urn:btih:473d5692d59703e7aa98fb41555f0a3706e98d26","amp;dn":"Amy%282015%29MPEG-4%28720p%29%5BDaScubaDude%5D","amp;tr":["udp%3A%2F%2Ftracker.leechers-paradise.org%3A6969","udp%3A%2F%2Fzer0day.ch%3A1337","udp%3A%2F%2Fopen.demonii.com%3A1337","udp%3A%2F%2Ftracker.coppersurfer.tk%3A6969","udp%3A%2F%2Fexodus.desync.com%3A6969"],"infoHash":"473d5692d59703e7aa98fb41555f0a3706e98d26","infoHashBuffer":{"type":"Buffer","data":[71,61,86,146,213,151,3,231,170,152,251,65,85,95,10,55,6,233,141,38]},"announce":[],"urlList":[]}}